<mxfile host="Electron" agent="Mozilla/5.0 (Windows NT 10.0; Win64; x64) AppleWebKit/537.36 (KHTML, like Gecko) draw.io/24.7.17 Chrome/128.0.6613.36 Electron/32.0.1 Safari/537.36" version="24.7.17">
  <diagram id="C5RBs43oDa-KdzZeNtuy" name="Page-1">
    <mxGraphModel dx="989" dy="577" grid="1" gridSize="10" guides="1" tooltips="1" connect="1" arrows="1" fold="1" page="1" pageScale="1" pageWidth="827" pageHeight="1169" math="0" shadow="0">
      <root>
        <mxCell id="WIyWlLk6GJQsqaUBKTNV-0" />
        <mxCell id="WIyWlLk6GJQsqaUBKTNV-1" parent="WIyWlLk6GJQsqaUBKTNV-0" />
        <mxCell id="zVx_qTq-GLq5Az-EMkBJ-0" value="" style="rounded=0;whiteSpace=wrap;html=1;strokeColor=none;movable=1;resizable=1;rotatable=1;deletable=1;editable=1;locked=0;connectable=1;" vertex="1" parent="WIyWlLk6GJQsqaUBKTNV-1">
          <mxGeometry x="10" width="890" height="520" as="geometry" />
        </mxCell>
        <mxCell id="WIyWlLk6GJQsqaUBKTNV-3" value="End User" style="rounded=1;whiteSpace=wrap;html=1;fontSize=12;glass=0;strokeWidth=1;shadow=0;" parent="WIyWlLk6GJQsqaUBKTNV-1" vertex="1">
          <mxGeometry x="50" y="252.5" width="120" height="40" as="geometry" />
        </mxCell>
        <mxCell id="zVx_qTq-GLq5Az-EMkBJ-1" value="NGINX (Frontend)" style="rounded=1;whiteSpace=wrap;html=1;fontSize=12;glass=0;strokeWidth=1;shadow=0;" vertex="1" parent="WIyWlLk6GJQsqaUBKTNV-1">
          <mxGeometry x="330" y="260" width="120" height="40" as="geometry" />
        </mxCell>
        <mxCell id="zVx_qTq-GLq5Az-EMkBJ-7" value="" style="rounded=1;whiteSpace=wrap;html=1;movable=0;resizable=0;rotatable=0;deletable=0;editable=0;locked=1;connectable=0;" vertex="1" parent="WIyWlLk6GJQsqaUBKTNV-1">
          <mxGeometry x="210" y="70" width="620" height="400" as="geometry" />
        </mxCell>
        <mxCell id="zVx_qTq-GLq5Az-EMkBJ-8" value="" style="rounded=1;whiteSpace=wrap;html=1;movable=0;resizable=0;rotatable=0;deletable=0;editable=0;locked=1;connectable=0;" vertex="1" parent="WIyWlLk6GJQsqaUBKTNV-1">
          <mxGeometry x="240" y="110.32" width="560" height="319.37" as="geometry" />
        </mxCell>
        <mxCell id="zVx_qTq-GLq5Az-EMkBJ-16" value="" style="rounded=0;whiteSpace=wrap;html=1;movable=0;resizable=0;rotatable=0;deletable=0;editable=0;locked=1;connectable=0;" vertex="1" parent="WIyWlLk6GJQsqaUBKTNV-1">
          <mxGeometry x="270" y="145" width="500" height="255" as="geometry" />
        </mxCell>
        <mxCell id="zVx_qTq-GLq5Az-EMkBJ-11" value="" style="ellipse;whiteSpace=wrap;html=1;" vertex="1" parent="WIyWlLk6GJQsqaUBKTNV-1">
          <mxGeometry x="311.25" y="171.25" width="437.5" height="202.5" as="geometry" />
        </mxCell>
        <mxCell id="zVx_qTq-GLq5Az-EMkBJ-3" value="Backend Server" style="rounded=1;whiteSpace=wrap;html=1;fontSize=12;glass=0;strokeWidth=1;shadow=0;" vertex="1" parent="WIyWlLk6GJQsqaUBKTNV-1">
          <mxGeometry x="540" y="255" width="120" height="40" as="geometry" />
        </mxCell>
        <mxCell id="zVx_qTq-GLq5Az-EMkBJ-4" value="Redis" style="rounded=1;whiteSpace=wrap;html=1;fontSize=12;glass=0;strokeWidth=1;shadow=0;" vertex="1" parent="WIyWlLk6GJQsqaUBKTNV-1">
          <mxGeometry x="540" y="305" width="120" height="40" as="geometry" />
        </mxCell>
        <mxCell id="zVx_qTq-GLq5Az-EMkBJ-5" value="Kafka" style="rounded=1;whiteSpace=wrap;html=1;fontSize=12;glass=0;strokeWidth=1;shadow=0;" vertex="1" parent="WIyWlLk6GJQsqaUBKTNV-1">
          <mxGeometry x="540" y="205" width="120" height="40" as="geometry" />
        </mxCell>
        <mxCell id="zVx_qTq-GLq5Az-EMkBJ-9" value="&lt;b&gt;&lt;font style=&quot;font-size: 20px;&quot;&gt;VPC&lt;/font&gt;&lt;/b&gt;" style="text;html=1;align=center;verticalAlign=middle;whiteSpace=wrap;rounded=0;" vertex="1" parent="WIyWlLk6GJQsqaUBKTNV-1">
          <mxGeometry x="500" y="40" width="60" height="30" as="geometry" />
        </mxCell>
        <mxCell id="zVx_qTq-GLq5Az-EMkBJ-10" value="&lt;span style=&quot;font-size: 20px;&quot;&gt;&lt;b&gt;Public Subnet&lt;/b&gt;&lt;/span&gt;" style="text;html=1;align=center;verticalAlign=middle;whiteSpace=wrap;rounded=0;" vertex="1" parent="WIyWlLk6GJQsqaUBKTNV-1">
          <mxGeometry x="450" y="80.32" width="160" height="30" as="geometry" />
        </mxCell>
        <mxCell id="zVx_qTq-GLq5Az-EMkBJ-12" value="&lt;b&gt;&lt;font style=&quot;font-size: 15px;&quot;&gt;Kubernetes&lt;/font&gt;&lt;/b&gt;" style="text;html=1;align=center;verticalAlign=middle;whiteSpace=wrap;rounded=0;" vertex="1" parent="WIyWlLk6GJQsqaUBKTNV-1">
          <mxGeometry x="475" y="146.25" width="110" height="25" as="geometry" />
        </mxCell>
        <mxCell id="zVx_qTq-GLq5Az-EMkBJ-20" style="edgeStyle=orthogonalEdgeStyle;rounded=0;orthogonalLoop=1;jettySize=auto;html=1;exitX=1;exitY=0.5;exitDx=0;exitDy=0;entryX=0;entryY=0.5;entryDx=0;entryDy=0;" edge="1" parent="WIyWlLk6GJQsqaUBKTNV-1" source="zVx_qTq-GLq5Az-EMkBJ-14" target="zVx_qTq-GLq5Az-EMkBJ-3">
          <mxGeometry relative="1" as="geometry" />
        </mxCell>
        <mxCell id="zVx_qTq-GLq5Az-EMkBJ-14" value="NIGINX Ingress Controller&amp;nbsp;&lt;div&gt;(Frontend)&lt;/div&gt;" style="rounded=1;whiteSpace=wrap;html=1;fontSize=12;glass=0;strokeWidth=1;shadow=0;" vertex="1" parent="WIyWlLk6GJQsqaUBKTNV-1">
          <mxGeometry x="335" y="245" width="165" height="60" as="geometry" />
        </mxCell>
        <mxCell id="zVx_qTq-GLq5Az-EMkBJ-17" value="&lt;b&gt;&lt;font style=&quot;font-size: 15px;&quot;&gt;EC2&lt;/font&gt;&lt;/b&gt;" style="text;html=1;align=center;verticalAlign=middle;whiteSpace=wrap;rounded=0;" vertex="1" parent="WIyWlLk6GJQsqaUBKTNV-1">
          <mxGeometry x="500" y="115" width="60" height="30" as="geometry" />
        </mxCell>
        <mxCell id="zVx_qTq-GLq5Az-EMkBJ-19" style="edgeStyle=orthogonalEdgeStyle;rounded=0;orthogonalLoop=1;jettySize=auto;html=1;exitX=1;exitY=0.5;exitDx=0;exitDy=0;entryX=0;entryY=0.5;entryDx=0;entryDy=0;" edge="1" parent="WIyWlLk6GJQsqaUBKTNV-1" source="WIyWlLk6GJQsqaUBKTNV-3" target="zVx_qTq-GLq5Az-EMkBJ-11">
          <mxGeometry relative="1" as="geometry" />
        </mxCell>
      </root>
    </mxGraphModel>
  </diagram>
</mxfile>
